<?xml version="1.0" encoding="UTF-8" standalone="no"?><!DOCTYPE svg PUBLIC "-//W3C//DTD SVG 1.1//EN" "http://www.w3.org/Graphics/SVG/1.1/DTD/svg11.dtd"><svg width="100%" height="100%" viewBox="0 0 128 128" version="1.1" xmlns="http://www.w3.org/2000/svg" xmlns:xlink="http://www.w3.org/1999/xlink" xml:space="preserve" xmlns:serif="http://www.serif.com/" style="fill-rule:evenodd;clip-rule:evenodd;stroke-linejoin:round;stroke-miterlimit:1.41421;"><g><path d="M55.403,124.903l0.383,0.052l0.384,0.05l0.385,0.048l0.386,0.046l0.386,0.043l0.387,0.04l0.388,0.038l0.389,0.036l0.389,0.034l0.39,0.03l0.39,0.029l0.392,0.026l0.392,0.024l0.392,0.021l0.393,0.019l0.394,0.016l0.395,0.014l0.395,0.011l0.396,0.009l0.396,0.006l0.397,0.004l0.33,0.001l-0.009,3l-0.34,-0.001l-0.416,-0.004l-0.415,-0.007l-0.415,-0.009l-0.414,-0.012l-0.414,-0.014l-0.413,-0.017l-0.412,-0.02l-0.412,-0.022l-0.41,-0.025l-0.411,-0.027l-0.409,-0.03l-0.409,-0.033l-0.408,-0.035l-0.408,-0.037l-0.406,-0.04l-0.406,-0.043l-0.405,-0.045l-0.405,-0.047l-0.404,-0.051l-0.403,-0.052l-0.402,-0.055l-0.24,-0.035l0.425,-2.969l0.232,0.033Zm26.709,1.015l-0.081,0.023l-0.382,0.11l-0.383,0.108l-0.384,0.105l-0.385,0.103l-0.386,0.101l-0.387,0.098l-0.388,0.096l-0.388,0.094l-0.39,0.091l-0.39,0.089l-0.392,0.087l-0.392,0.084l-0.393,0.082l-0.394,0.079l-0.395,0.077l-0.395,0.075l-0.397,0.072l-0.397,0.07l-0.398,0.067l-0.399,0.065l-0.4,0.062l-0.401,0.06l-0.304,0.044l-0.426,-2.97l0.295,-0.042l0.382,-0.057l0.381,-0.06l0.381,-0.062l0.379,-0.064l0.379,-0.066l0.378,-0.069l0.377,-0.071l0.376,-0.074l0.376,-0.075l0.375,-0.078l0.374,-0.081l0.373,-0.082l0.372,-0.085l0.371,-0.087l0.371,-0.089l0.369,-0.092l0.369,-0.093l0.368,-0.096l0.367,-0.099l0.366,-0.1l0.365,-0.102l0.364,-0.105l0.072,-0.021l0.847,2.878Zm-43.411,-5.853l0.342,0.153l0.342,0.151l0.343,0.149l0.344,0.147l0.345,0.144l0.347,0.143l0.347,0.141l0.349,0.139l0.349,0.137l0.351,0.134l0.351,0.133l0.353,0.13l0.354,0.128l0.354,0.127l0.356,0.124l0.356,0.122l0.358,0.12l0.358,0.117l0.36,0.116l0.36,0.113l0.362,0.112l0.362,0.109l0.152,0.045l-0.847,2.878l-0.161,-0.048l-0.38,-0.114l-0.379,-0.117l-0.379,-0.119l-0.377,-0.121l-0.376,-0.124l-0.375,-0.126l-0.374,-0.128l-0.373,-0.13l-0.372,-0.132l-0.371,-0.135l-0.37,-0.137l-0.369,-0.139l-0.368,-0.141l-0.367,-0.144l-0.365,-0.145l-0.365,-0.148l-0.363,-0.15l-0.362,-0.152l-0.361,-0.154l-0.36,-0.156l-0.359,-0.159l-0.358,-0.16l-0.334,-0.153l1.244,-2.729l0.326,0.149Zm60.119,-1.775l-0.064,0.042l-0.328,0.209l-0.329,0.207l-0.331,0.205l-0.331,0.203l-0.334,0.201l-0.334,0.199l-0.336,0.197l-0.337,0.195l-0.338,0.194l-0.34,0.191l-0.34,0.189l-0.342,0.187l-0.344,0.186l-0.344,0.183l-0.346,0.181l-0.347,0.179l-0.349,0.178l-0.349,0.175l-0.351,0.173l-0.352,0.171l-0.353,0.169l-0.354,0.166l-0.355,0.165l-0.154,0.07l-1.245,-2.729l0.145,-0.067l0.339,-0.157l0.338,-0.159l0.336,-0.161l0.336,-0.163l0.334,-0.165l0.333,-0.167l0.332,-0.168l0.331,-0.171l0.33,-0.173l0.329,-0.175l0.327,-0.176l0.326,-0.179l0.325,-0.18l0.324,-0.183l0.322,-0.184l0.322,-0.186l0.32,-0.188l0.319,-0.19l0.317,-0.192l0.317,-0.194l0.315,-0.195l0.314,-0.197l0.312,-0.2l0.057,-0.036l1.627,2.52Zm-75.057,-7.794l0.28,0.241l0.281,0.239l0.283,0.238l0.284,0.236l0.285,0.234l0.287,0.232l0.289,0.231l0.289,0.229l0.292,0.228l0.292,0.226l0.294,0.224l0.296,0.222l0.296,0.221l0.298,0.219l0.3,0.217l0.301,0.215l0.302,0.214l0.303,0.211l0.305,0.21l0.306,0.209l0.308,0.206l0.308,0.205l0.31,0.202l0.133,0.086l-1.627,2.52l-0.14,-0.09l-0.325,-0.213l-0.324,-0.214l-0.323,-0.217l-0.321,-0.218l-0.319,-0.22l-0.318,-0.222l-0.317,-0.224l-0.316,-0.226l-0.314,-0.228l-0.312,-0.229l-0.311,-0.232l-0.31,-0.233l-0.308,-0.235l-0.307,-0.236l-0.305,-0.239l-0.304,-0.24l-0.303,-0.242l-0.301,-0.244l-0.299,-0.246l-0.298,-0.247l-0.296,-0.249l-0.295,-0.251l-0.294,-0.253l-0.099,-0.086l1.971,-2.262l0.093,0.081Zm88.938,-4.223l-0.192,0.22l-0.256,0.291l-0.258,0.288l-0.259,0.287l-0.262,0.286l-0.262,0.284l-0.265,0.283l-0.266,0.28l-0.268,0.28l-0.269,0.277l-0.272,0.276l-0.272,0.275l-0.275,0.272l-0.276,0.272l-0.277,0.269l-0.28,0.268l-0.28,0.266l-0.283,0.265l-0.284,0.262l-0.286,0.262l-0.287,0.259l-0.288,0.258l-0.291,0.256l-0.291,0.254l-0.017,0.015l-1.958,-2.274l0.01,-0.008l0.278,-0.243l0.277,-0.244l0.276,-0.246l0.274,-0.247l0.272,-0.249l0.271,-0.251l0.269,-0.252l0.268,-0.254l0.267,-0.256l0.264,-0.257l0.264,-0.259l0.261,-0.26l0.26,-0.261l0.259,-0.264l0.257,-0.264l0.256,-0.267l0.254,-0.268l0.252,-0.269l0.251,-0.271l0.249,-0.272l0.247,-0.274l0.246,-0.276l0.244,-0.277l0.186,-0.213l2.262,1.971Zm-100.307,-8.825l0.203,0.31l0.205,0.308l0.206,0.308l0.209,0.306l0.21,0.305l0.211,0.303l0.214,0.302l0.215,0.301l0.217,0.3l0.219,0.298l0.221,0.296l0.222,0.296l0.224,0.294l0.226,0.292l0.228,0.292l0.229,0.289l0.231,0.289l0.232,0.287l0.234,0.285l0.236,0.284l0.238,0.283l0.239,0.281l0.209,0.243l-2.273,1.957l-0.215,-0.249l-0.251,-0.295l-0.249,-0.296l-0.247,-0.298l-0.246,-0.299l-0.244,-0.301l-0.242,-0.303l-0.24,-0.304l-0.239,-0.305l-0.236,-0.307l-0.235,-0.308l-0.233,-0.31l-0.232,-0.311l-0.229,-0.312l-0.228,-0.314l-0.226,-0.316l-0.224,-0.317l-0.222,-0.318l-0.22,-0.319l-0.218,-0.321l-0.217,-0.323l-0.214,-0.324l-0.213,-0.325l-0.189,-0.292l2.521,-1.627l0.183,0.285Zm110.266,-6.611l-0.025,0.055l-0.165,0.355l-0.166,0.354l-0.169,0.353l-0.171,0.352l-0.173,0.351l-0.175,0.349l-0.178,0.349l-0.179,0.347l-0.181,0.346l-0.183,0.344l-0.186,0.344l-0.187,0.342l-0.189,0.34l-0.191,0.34l-0.194,0.338l-0.195,0.337l-0.197,0.336l-0.199,0.334l-0.201,0.334l-0.203,0.331l-0.205,0.331l-0.207,0.329l-0.209,0.328l-0.101,0.156l-2.52,-1.627l0.095,-0.149l0.2,-0.312l0.197,-0.314l0.195,-0.315l0.194,-0.317l0.192,-0.317l0.19,-0.319l0.188,-0.32l0.186,-0.322l0.184,-0.322l0.183,-0.324l0.18,-0.325l0.179,-0.326l0.176,-0.327l0.175,-0.329l0.173,-0.33l0.171,-0.331l0.168,-0.332l0.167,-0.333l0.165,-0.334l0.163,-0.336l0.161,-0.336l0.159,-0.338l0.157,-0.339l0.022,-0.046l2.729,1.245Zm-117.614,-9.281l0.109,0.362l0.112,0.362l0.113,0.36l0.116,0.36l0.117,0.358l0.12,0.358l0.122,0.356l0.124,0.356l0.127,0.354l0.128,0.354l0.13,0.353l0.133,0.351l0.134,0.351l0.137,0.349l0.139,0.349l0.141,0.347l0.143,0.347l0.144,0.345l0.147,0.344l0.149,0.343l0.151,0.342l0.153,0.341l0.074,0.162l-2.729,1.245l-0.078,-0.17l-0.16,-0.358l-0.159,-0.359l-0.156,-0.36l-0.154,-0.361l-0.152,-0.362l-0.15,-0.363l-0.148,-0.365l-0.145,-0.365l-0.144,-0.367l-0.141,-0.368l-0.139,-0.369l-0.137,-0.37l-0.135,-0.371l-0.132,-0.372l-0.13,-0.373l-0.128,-0.374l-0.126,-0.375l-0.124,-0.376l-0.121,-0.377l-0.119,-0.379l-0.117,-0.379l-0.114,-0.38l-0.099,-0.335l2.878,-0.847l0.096,0.326Zm122.798,-8.337l-0.028,0.196l-0.06,0.401l-0.062,0.4l-0.065,0.399l-0.067,0.398l-0.07,0.397l-0.072,0.397l-0.075,0.395l-0.077,0.395l-0.079,0.394l-0.082,0.393l-0.084,0.392l-0.087,0.392l-0.089,0.39l-0.091,0.39l-0.094,0.388l-0.096,0.388l-0.098,0.387l-0.101,0.386l-0.103,0.385l-0.105,0.384l-0.108,0.383l-0.11,0.382l-0.054,0.185l-2.878,-0.847l0.052,-0.176l0.105,-0.364l0.102,-0.365l0.1,-0.366l0.099,-0.367l0.096,-0.368l0.093,-0.369l0.092,-0.369l0.089,-0.371l0.087,-0.371l0.085,-0.372l0.082,-0.373l0.081,-0.374l0.078,-0.375l0.075,-0.376l0.074,-0.376l0.071,-0.377l0.069,-0.378l0.066,-0.379l0.064,-0.379l0.062,-0.381l0.06,-0.381l0.057,-0.382l0.027,-0.187l2.969,0.426Zm-125.344,-9.323l0,0.104l0.001,0.398l0.004,0.397l0.006,0.396l0.009,0.396l0.011,0.395l0.014,0.395l0.016,0.394l0.019,0.393l0.021,0.392l0.024,0.392l0.026,0.392l0.029,0.39l0.03,0.39l0.034,0.389l0.036,0.389l0.038,0.388l0.04,0.387l0.043,0.386l0.046,0.386l0.048,0.385l0.05,0.384l0.052,0.383l0.008,0.053l-2.97,0.425l-0.009,-0.061l-0.055,-0.402l-0.052,-0.403l-0.051,-0.404l-0.047,-0.405l-0.045,-0.405l-0.043,-0.406l-0.04,-0.406l-0.037,-0.408l-0.035,-0.408l-0.033,-0.409l-0.03,-0.409l-0.027,-0.411l-0.025,-0.41l-0.022,-0.412l-0.02,-0.412l-0.017,-0.413l-0.014,-0.414l-0.012,-0.414l-0.009,-0.415l-0.007,-0.415l-0.004,-0.416l-0.001,-0.417l0,-0.113l3,0.009Zm125.374,-8.91l0.055,0.402l0.052,0.403l0.051,0.404l0.047,0.405l0.045,0.405l0.043,0.406l0.04,0.406l0.037,0.408l0.035,0.408l0.033,0.409l0.03,0.409l0.027,0.411l0.025,0.41l0.022,0.412l0.02,0.412l0.017,0.413l0.014,0.414l0.012,0.414l0.009,0.415l0.007,0.415l0.004,0.416l0.001,0.417l0,0.041l-3,-0.01l0,-0.031l-0.001,-0.398l-0.004,-0.397l-0.006,-0.396l-0.009,-0.396l-0.011,-0.395l-0.014,-0.395l-0.016,-0.394l-0.019,-0.393l-0.021,-0.392l-0.024,-0.392l-0.026,-0.392l-0.029,-0.39l-0.03,-0.39l-0.034,-0.389l-0.036,-0.389l-0.038,-0.388l-0.04,-0.387l-0.043,-0.386l-0.046,-0.386l-0.048,-0.385l-0.05,-0.384l-0.052,-0.383l-0.018,-0.124l2.97,-0.426l0.019,0.133Zm-122.862,-8.424l-0.073,0.245l-0.105,0.364l-0.102,0.365l-0.1,0.366l-0.099,0.367l-0.096,0.368l-0.093,0.369l-0.092,0.369l-0.089,0.371l-0.087,0.371l-0.085,0.372l-0.082,0.373l-0.081,0.374l-0.078,0.375l-0.075,0.376l-0.074,0.376l-0.071,0.377l-0.069,0.378l-0.066,0.379l-0.064,0.379l-0.062,0.381l-0.06,0.381l-0.057,0.382l-0.017,0.115l-2.969,-0.425l0.018,-0.125l0.06,-0.401l0.062,-0.4l0.065,-0.399l0.067,-0.398l0.07,-0.397l0.072,-0.397l0.075,-0.395l0.077,-0.395l0.079,-0.394l0.082,-0.393l0.084,-0.392l0.087,-0.392l0.089,-0.39l0.091,-0.39l0.094,-0.388l0.096,-0.388l0.098,-0.387l0.101,-0.386l0.103,-0.385l0.105,-0.384l0.108,-0.383l0.11,-0.382l0.075,-0.255l2.878,0.848Zm117.786,-9.097l0.16,0.358l0.159,0.359l0.156,0.36l0.154,0.361l0.152,0.362l0.15,0.363l0.148,0.365l0.145,0.365l0.144,0.367l0.141,0.368l0.139,0.369l0.137,0.37l0.135,0.371l0.132,0.372l0.13,0.373l0.128,0.374l0.126,0.375l0.124,0.376l0.121,0.377l0.119,0.379l0.117,0.379l0.114,0.38l0.078,0.265l-2.878,0.848l-0.075,-0.257l-0.109,-0.362l-0.112,-0.362l-0.113,-0.36l-0.116,-0.36l-0.117,-0.358l-0.12,-0.358l-0.122,-0.356l-0.124,-0.356l-0.127,-0.354l-0.128,-0.354l-0.13,-0.353l-0.133,-0.351l-0.134,-0.351l-0.137,-0.349l-0.139,-0.349l-0.141,-0.347l-0.143,-0.347l-0.144,-0.345l-0.147,-0.344l-0.149,-0.343l-0.151,-0.342l-0.153,-0.342l-0.104,-0.227l2.729,-1.245l0.108,0.236Zm-110.469,-6.81l-0.135,0.209l-0.2,0.312l-0.197,0.314l-0.195,0.315l-0.194,0.317l-0.192,0.317l-0.19,0.319l-0.188,0.32l-0.186,0.322l-0.184,0.322l-0.183,0.324l-0.18,0.325l-0.179,0.326l-0.176,0.327l-0.175,0.329l-0.173,0.33l-0.171,0.331l-0.168,0.332l-0.167,0.333l-0.165,0.334l-0.163,0.336l-0.161,0.336l-0.159,0.338l-0.153,0.328l-2.721,-1.262l0.156,-0.336l0.166,-0.354l0.169,-0.353l0.171,-0.352l0.173,-0.351l0.175,-0.349l0.178,-0.349l0.179,-0.347l0.181,-0.346l0.183,-0.344l0.186,-0.344l0.187,-0.342l0.189,-0.34l0.191,-0.34l0.194,-0.338l0.195,-0.337l0.197,-0.336l0.199,-0.334l0.201,-0.334l0.203,-0.331l0.205,-0.331l0.207,-0.329l0.209,-0.328l0.14,-0.217l2.521,1.628Zm100.434,-8.857l0.253,0.294l0.251,0.295l0.249,0.296l0.247,0.298l0.246,0.299l0.244,0.301l0.242,0.303l0.24,0.304l0.239,0.305l0.236,0.307l0.235,0.308l0.233,0.31l0.232,0.311l0.229,0.312l0.228,0.314l0.226,0.316l0.224,0.317l0.222,0.318l0.22,0.319l0.218,0.321l0.217,0.323l0.214,0.324l0.213,0.325l0.149,0.231l-2.52,1.627l-0.145,-0.224l-0.202,-0.31l-0.205,-0.308l-0.206,-0.308l-0.209,-0.306l-0.21,-0.305l-0.211,-0.303l-0.214,-0.302l-0.215,-0.301l-0.217,-0.3l-0.219,-0.298l-0.221,-0.296l-0.222,-0.296l-0.224,-0.294l-0.226,-0.292l-0.228,-0.292l-0.229,-0.289l-0.231,-0.289l-0.232,-0.287l-0.234,-0.285l-0.236,-0.284l-0.238,-0.283l-0.239,-0.281l-0.241,-0.28l-0.009,-0.011l2.261,-1.971l0.015,0.017Zm-88.935,-4.35l-0.065,0.056l-0.278,0.243l-0.277,0.244l-0.276,0.246l-0.274,0.247l-0.272,0.249l-0.271,0.251l-0.269,0.252l-0.268,0.254l-0.266,0.256l-0.265,0.257l-0.264,0.258l-0.261,0.261l-0.261,0.261l-0.258,0.264l-0.257,0.265l-0.256,0.266l-0.254,0.268l-0.252,0.269l-0.251,0.271l-0.249,0.272l-0.247,0.274l-0.246,0.276l-0.244,0.277l-0.138,0.158l-2.262,-1.971l0.144,-0.165l0.256,-0.291l0.258,-0.288l0.259,-0.287l0.262,-0.286l0.262,-0.284l0.265,-0.283l0.266,-0.28l0.268,-0.28l0.269,-0.277l0.272,-0.276l0.272,-0.275l0.275,-0.272l0.276,-0.272l0.277,-0.269l0.28,-0.268l0.28,-0.266l0.283,-0.265l0.284,-0.262l0.286,-0.262l0.287,-0.259l0.288,-0.258l0.291,-0.256l0.291,-0.254l0.072,-0.062l1.958,2.273Zm75.254,-7.569l0.325,0.213l0.324,0.214l0.323,0.217l0.321,0.218l0.319,0.22l0.318,0.222l0.317,0.224l0.316,0.226l0.314,0.228l0.312,0.229l0.311,0.232l0.31,0.233l0.308,0.235l0.307,0.236l0.305,0.239l0.304,0.24l0.303,0.242l0.301,0.244l0.299,0.246l0.298,0.247l0.296,0.249l0.295,0.251l0.294,0.253l0.044,0.039l-1.971,2.261l-0.038,-0.033l-0.28,-0.241l-0.281,-0.239l-0.283,-0.238l-0.284,-0.236l-0.285,-0.234l-0.287,-0.232l-0.289,-0.231l-0.289,-0.229l-0.292,-0.228l-0.292,-0.226l-0.294,-0.224l-0.296,-0.222l-0.296,-0.221l-0.298,-0.219l-0.3,-0.217l-0.301,-0.215l-0.302,-0.214l-0.303,-0.211l-0.305,-0.21l-0.306,-0.209l-0.308,-0.206l-0.308,-0.205l-0.31,-0.203l-0.194,-0.124l1.627,-2.521l0.201,0.13Zm-60.509,-1.885l-0.211,0.097l-0.339,0.157l-0.338,0.159l-0.336,0.161l-0.336,0.163l-0.334,0.165l-0.333,0.167l-0.332,0.168l-0.331,0.171l-0.33,0.173l-0.329,0.175l-0.327,0.176l-0.326,0.179l-0.325,0.18l-0.324,0.183l-0.322,0.184l-0.322,0.186l-0.32,0.188l-0.319,0.19l-0.317,0.192l-0.317,0.194l-0.315,0.195l-0.314,0.197l-0.316,0.202l-1.612,-2.53l0.324,-0.207l0.329,-0.207l0.331,-0.205l0.331,-0.203l0.334,-0.201l0.334,-0.199l0.336,-0.197l0.337,-0.195l0.338,-0.194l0.34,-0.191l0.34,-0.189l0.342,-0.187l0.344,-0.186l0.344,-0.183l0.346,-0.181l0.347,-0.179l0.349,-0.178l0.349,-0.175l0.351,-0.173l0.352,-0.171l0.353,-0.169l0.354,-0.166l0.355,-0.165l0.22,-0.1l1.245,2.729Zm43.839,-5.823l0.38,0.114l0.379,0.117l0.379,0.119l0.377,0.121l0.376,0.124l0.375,0.126l0.374,0.128l0.373,0.13l0.372,0.132l0.371,0.135l0.37,0.137l0.369,0.139l0.368,0.141l0.367,0.144l0.365,0.145l0.365,0.148l0.363,0.15l0.362,0.152l0.361,0.154l0.36,0.156l0.359,0.159l0.358,0.16l0.269,0.123l-1.245,2.729l-0.261,-0.119l-0.341,-0.153l-0.342,-0.151l-0.343,-0.149l-0.344,-0.147l-0.345,-0.144l-0.347,-0.143l-0.347,-0.141l-0.349,-0.139l-0.349,-0.137l-0.351,-0.134l-0.351,-0.133l-0.353,-0.13l-0.354,-0.128l-0.354,-0.127l-0.356,-0.124l-0.356,-0.122l-0.358,-0.12l-0.358,-0.117l-0.36,-0.116l-0.36,-0.113l-0.362,-0.112l-0.362,-0.109l-0.222,-0.065l0.847,-2.878l0.231,0.068Zm-27.026,0.929l-0.366,0.052l-0.382,0.057l-0.381,0.06l-0.381,0.062l-0.379,0.064l-0.379,0.066l-0.378,0.069l-0.377,0.071l-0.376,0.074l-0.376,0.075l-0.375,0.078l-0.374,0.081l-0.373,0.082l-0.372,0.085l-0.371,0.087l-0.371,0.089l-0.369,0.092l-0.369,0.093l-0.368,0.096l-0.367,0.099l-0.366,0.1l-0.365,0.102l-0.364,0.105l-0.002,0.001l-0.847,-2.878l0.011,-0.003l0.382,-0.11l0.383,-0.108l0.384,-0.105l0.385,-0.103l0.386,-0.101l0.387,-0.098l0.388,-0.096l0.388,-0.094l0.39,-0.091l0.39,-0.089l0.392,-0.087l0.392,-0.084l0.393,-0.082l0.394,-0.079l0.395,-0.077l0.395,-0.075l0.397,-0.072l0.397,-0.07l0.398,-0.067l0.399,-0.065l0.4,-0.062l0.401,-0.06l0.376,-0.054l0.425,2.97Zm9.031,-3.599l0.416,0.004l0.415,0.007l0.415,0.009l0.414,0.012l0.414,0.014l0.413,0.017l0.412,0.02l0.412,0.022l0.41,0.025l0.411,0.027l0.409,0.03l0.409,0.033l0.408,0.035l0.408,0.037l0.406,0.04l0.406,0.043l0.405,0.045l0.405,0.047l0.404,0.051l0.403,0.052l0.402,0.055l0.169,0.024l-0.426,2.97l-0.16,-0.023l-0.383,-0.052l-0.384,-0.05l-0.385,-0.048l-0.386,-0.046l-0.386,-0.043l-0.387,-0.04l-0.388,-0.038l-0.389,-0.036l-0.389,-0.034l-0.39,-0.03l-0.39,-0.029l-0.392,-0.026l-0.392,-0.024l-0.392,-0.021l-0.393,-0.019l-0.394,-0.016l-0.395,-0.014l-0.395,-0.011l-0.396,-0.009l-0.396,-0.006l-0.397,-0.004l-0.403,-0.001l0.01,-3l0.412,0.001Z" style="fill:#ffac00;"/></g><g id="Layer1"><circle cx="64" cy="64" r="57.5" style="fill:#fff;"/></g></svg>