<?xml version="1.0" encoding="iso-8859-1"?>
<!-- Generator: Adobe Illustrator 18.0.0, SVG Export Plug-In . SVG Version: 6.00 Build 0)  -->
<!DOCTYPE svg PUBLIC "-//W3C//DTD SVG 1.1//EN" "http://www.w3.org/Graphics/SVG/1.1/DTD/svg11.dtd">
<svg xmlns="http://www.w3.org/2000/svg" xmlns:xlink="http://www.w3.org/1999/xlink" version="1.1" id="Capa_1" x="0px" y="0px" viewBox="0 0 310.522 310.522" style="enable-background:new 0 0 310.522 310.522;" xml:space="preserve" width="512px" height="512px">
<g>
	<path d="M237.52,88.174c-6.091,0-11.723,1.993-16.287,5.357c-4.472-9.153-13.876-15.474-24.731-15.474   c-6.107,0-11.753,2.003-16.323,5.383c-4.486-9.115-13.869-15.404-24.695-15.404c-4.906,0-9.517,1.291-13.509,3.551V27.508   C141.976,12.34,129.635,0,114.467,0S86.959,12.34,86.959,27.508v102.081c-3.119-1.834-6.601-3.048-10.295-3.543   c-7.288-0.977-14.51,0.942-20.351,5.4c-5.84,4.459-9.595,10.926-10.571,18.208s0.942,14.51,5.401,20.35l46.239,60.561   c5.391,10.09,12.764,19.153,21.876,26.678l0.004,46.279c0,3.866,3.134,7,7,7h99.461c3.866,0,7-3.134,7-7l0.004-46.279   c20.573-16.99,32.301-41.805,32.301-68.624v-72.938C265.029,100.514,252.688,88.174,237.52,88.174z M62.271,161.508   c-2.189-2.868-3.132-6.417-2.652-9.993s2.323-6.751,5.191-8.941c2.867-2.189,6.417-3.134,9.993-2.652   c3.576,0.479,6.752,2.323,8.941,5.19l3.215,4.211v39.297c0,1.824,0.059,3.638,0.167,5.442L62.271,161.508z M251.029,188.62   c0,23.592-10.771,45.345-29.549,59.681c-1.734,1.324-2.752,3.381-2.752,5.563l-0.003,42.658h-85.463l-0.003-42.658   c0-2.182-1.018-4.239-2.752-5.563c-18.778-14.336-29.548-36.089-29.548-59.681V27.508c0-7.449,6.06-13.508,13.509-13.508   c7.448,0,13.508,6.06,13.508,13.508v117.373c0,3.866,3.134,7,7,7s7-3.134,7-7V95.544c0-7.449,6.06-13.509,13.509-13.509   s13.509,6.06,13.509,13.509v50.346c0,3.866,3.134,7,7,7s7-3.134,7-7v-40.325c0-7.449,6.06-13.508,13.509-13.508   s13.509,6.06,13.509,13.508v7.155c0,0.338,0.032,0.667,0.078,0.992c-0.046,0.652-0.078,1.307-0.078,1.97v29.198   c0,3.866,3.134,7,7,7s7-3.134,7-7v-29.198c0-7.449,6.06-13.509,13.509-13.509s13.509,6.06,13.509,13.509V188.62z" fill="#EDAA0F"/>
</g>
<g>
</g>
<g>
</g>
<g>
</g>
<g>
</g>
<g>
</g>
<g>
</g>
<g>
</g>
<g>
</g>
<g>
</g>
<g>
</g>
<g>
</g>
<g>
</g>
<g>
</g>
<g>
</g>
<g>
</g>
</svg>
