<?xml version="1.0" encoding="UTF-8" standalone="no"?><!DOCTYPE svg PUBLIC "-//W3C//DTD SVG 1.1//EN" "http://www.w3.org/Graphics/SVG/1.1/DTD/svg11.dtd"><svg width="100%" height="100%" viewBox="0 0 155 39" version="1.1" xmlns="http://www.w3.org/2000/svg" xmlns:xlink="http://www.w3.org/1999/xlink" xml:space="preserve" xmlns:serif="http://www.serif.com/" style="fill-rule:evenodd;clip-rule:evenodd;stroke-miterlimit:10;"><path d="M89.391,32.158c-1.015,0 -1.743,0.612 -1.743,1.454c0,0.64 0.347,1.039 1.379,1.57c0.52,0.265 0.745,0.398 0.883,0.507c0.306,0.243 0.445,0.543 0.445,0.924c0,0.687 -0.519,1.171 -1.27,1.171c-0.502,0 -0.842,-0.149 -1.327,-0.589l-0.156,0.474c0.531,0.323 0.93,0.438 1.449,0.438c0.496,0 0.929,-0.132 1.223,-0.386c0.375,-0.3 0.601,-0.768 0.601,-1.24c0,-0.387 -0.139,-0.734 -0.405,-1.034c-0.201,-0.214 -0.427,-0.364 -1.079,-0.681c-0.935,-0.479 -1.224,-0.774 -1.224,-1.293c0,-0.594 0.485,-1.027 1.138,-1.027c0.38,0 0.709,0.11 1.154,0.41l0.15,-0.404c-0.473,-0.213 -0.791,-0.294 -1.218,-0.294" style="fill:#0fdeed;fill-rule:nonzero;"/><path d="M96.79,32.238l-0.589,0c0.018,0.139 0.029,0.196 0.029,0.277l0,5.252c0,0.069 -0.011,0.127 -0.029,0.26l2.638,0l0,-0.323c-0.092,0.034 -0.122,0.034 -0.242,0.034l-1.83,0l0,-5.223c0,-0.098 0.006,-0.167 0.023,-0.277" style="fill:#0fdeed;fill-rule:nonzero;"/><path d="M106.076,37.819c-1.402,0 -2.158,-0.958 -2.158,-2.736c0,-1.662 0.779,-2.637 2.123,-2.637c1.414,0 2.182,0.947 2.182,2.684c0,1.726 -0.768,2.689 -2.147,2.689m-0.006,-5.661c-0.86,0 -1.529,0.253 -2.008,0.756c-0.485,0.513 -0.745,1.275 -0.745,2.163c0,1.951 0.987,3.03 2.77,3.03c1.737,0 2.736,-1.096 2.736,-2.977c0,-1.888 -1.01,-2.972 -2.753,-2.972" style="fill:#0fdeed;fill-rule:nonzero;"/><path d="M117.861,32.238l-0.294,0l-0.018,0.075c-0.012,0.018 -0.017,0.064 -0.041,0.121l-1.771,5.056l-1.755,-5.027c-0.046,-0.12 -0.052,-0.156 -0.063,-0.225l-0.6,0l0.046,0.11c0.046,0.098 0.069,0.167 0.069,0.173l1.853,5.286l0.046,0.133l0.029,0.087l0.478,0c0.035,-0.167 0.035,-0.173 0.053,-0.22l1.875,-5.344c0,-0.017 0.023,-0.081 0.07,-0.167l0.023,-0.058Z" style="fill:#0fdeed;fill-rule:nonzero;"/><path d="M122.864,35.828l1.08,-3.018l1.125,3.018l-2.205,0Zm1.49,-3.59l-0.491,0c-0.012,0.087 -0.024,0.139 -0.04,0.179l-1.916,5.39c-0.03,0.053 -0.053,0.104 -0.105,0.22l0.329,0c0.007,-0.122 0.007,-0.167 0.035,-0.22l0.623,-1.742l2.378,0l0.635,1.742c0.04,0.104 0.04,0.122 0.052,0.22l0.652,0c-0.069,-0.116 -0.099,-0.156 -0.121,-0.22l-1.997,-5.425c-0.018,-0.039 -0.029,-0.086 -0.034,-0.144" style="fill:#0fdeed;fill-rule:nonzero;"/><path d="M134.73,32.238l-0.398,0c-0.029,0.069 -0.035,0.087 -0.098,0.144l-2.084,2.412l0,-2.29c0,-0.092 0.012,-0.156 0.029,-0.266l-0.594,0c0.017,0.127 0.028,0.196 0.028,0.266l0,5.251c0,0.07 -0.011,0.139 -0.028,0.272l0.594,0c-0.017,-0.116 -0.029,-0.173 -0.029,-0.272l0,-2.625l2.291,2.706c0.07,0.087 0.081,0.104 0.116,0.191l0.79,0l-0.098,-0.069c-0.005,-0.006 -0.052,-0.064 -0.121,-0.139l-2.614,-3.064l2.014,-2.343c0.046,-0.053 0.087,-0.087 0.202,-0.174" style="fill:#0fdeed;fill-rule:nonzero;"/><path d="M140.923,32.238l-0.589,0c0.017,0.127 0.023,0.196 0.023,0.266l0,5.251c0,0.07 -0.006,0.139 -0.023,0.272l0.589,0c-0.017,-0.087 -0.023,-0.139 -0.023,-0.272l0,-5.251c0,-0.127 0.006,-0.179 0.023,-0.266" style="fill:#0fdeed;fill-rule:nonzero;"/><path d="M147.144,35.828l1.08,-3.018l1.125,3.018l-2.205,0Zm1.483,-3.59l-0.484,0c-0.018,0.087 -0.024,0.139 -0.041,0.179l-1.922,5.39c-0.023,0.053 -0.052,0.104 -0.104,0.22l0.33,0c0.011,-0.122 0.011,-0.167 0.034,-0.22l0.629,-1.742l2.378,0l0.635,1.742c0.04,0.104 0.04,0.122 0.051,0.22l0.647,0c-0.069,-0.116 -0.093,-0.156 -0.121,-0.22l-1.997,-5.425c-0.017,-0.039 -0.023,-0.086 -0.035,-0.144" style="fill:#0fdeed;fill-rule:nonzero;"/><path d="M5.801,6.446c0.017,0.156 0.039,0.237 0.138,0.508l6.712,18.977l3.993,-11.387c0.058,-0.139 0.075,-0.237 0.098,-0.271c0,0 0.018,-0.099 0.041,-0.179l0.664,0c-0.024,0.057 -0.058,0.115 -0.058,0.138c-0.098,0.196 -0.161,0.329 -0.161,0.37l-4.225,12.055c-0.041,0.099 -0.041,0.116 -0.116,0.486l-1.079,0c-0.034,-0.093 -0.058,-0.174 -0.058,-0.191l-0.115,-0.295l-6.932,-19.564c0,-0.017 -0.057,-0.173 -0.155,-0.392c-0.023,-0.041 -0.058,-0.139 -0.098,-0.255l1.351,0Z" style="fill:#0fdeed;fill-rule:nonzero;stroke:#3e73b9;stroke-width:0.75px;"/><path d="M1.351,0l-1.351,0c0.04,0.122 0.081,0.219 0.098,0.254c0.098,0.219 0.156,0.375 0.156,0.393l9.303,26.01l0.116,0.295c0,0.017 0.017,0.098 0.058,0.191l1.281,0l-0.439,-1.212l-9.084,-25.417c-0.099,-0.277 -0.115,-0.353 -0.138,-0.514" style="fill:#0fdeed;fill-rule:nonzero;"/><path d="M34.545,14.094l0,0.685c-0.234,-0.079 -0.351,-0.098 -0.587,-0.098l-4.206,0l0,7.258l4.07,0c0.352,0 0.448,-0.018 0.743,-0.097l0,0.665c-0.254,-0.04 -0.313,-0.04 -0.724,-0.04l-4.089,0l0,4.032l4.108,0c0.079,0 0.215,-0.019 0.392,-0.039c0.059,-0.019 0.175,-0.039 0.313,-0.058l0,0.743l-6.085,0c0.039,-0.254 0.058,-0.41 0.058,-0.607l0,-11.818c0,-0.273 -0.019,-0.391 -0.058,-0.626l6.065,0Z" style="fill:#0fdeed;fill-rule:nonzero;stroke:#3e73b9;stroke-width:0.75px;"/><path d="M47.517,26.539c0,0.215 0.02,0.351 0.059,0.606l-0.685,0c0.039,-0.294 0.059,-0.45 0.059,-0.606l0,-11.838c0,-0.156 -0.02,-0.314 -0.059,-0.606l1.33,0c0.038,0.156 0.059,0.195 0.176,0.371l7.846,11.153l0,-10.918c0,-0.215 -0.019,-0.352 -0.059,-0.606l0.685,0c-0.039,0.254 -0.059,0.391 -0.059,0.606l0,11.896c0,0.372 0,0.372 0.08,0.548l-1.058,0c-0.019,-0.098 -0.058,-0.157 -0.058,-0.176l-0.177,-0.235l-8.08,-11.485l0,11.29Z" style="fill:#0fdeed;fill-rule:nonzero;stroke:#3e73b9;stroke-width:0.75px;"/><path d="M76.748,14.094l0,0.724c-0.43,-0.058 -0.626,-0.078 -0.861,-0.078l-3.014,0l0,11.798c0,0.216 0.02,0.353 0.06,0.607l-1.331,0c0.038,-0.254 0.059,-0.391 0.059,-0.607l0,-11.798l-3.111,0c-0.294,0 -0.469,0.02 -0.823,0.078l0,-0.724l9.021,0Z" style="fill:#0fdeed;fill-rule:nonzero;stroke:#3e73b9;stroke-width:0.75px;"/><path d="M97.449,14.094c-0.04,0.216 -0.059,0.333 -0.059,0.606l0,8.277c0,0.96 -0.217,1.781 -0.646,2.446c-0.802,1.292 -2.211,1.898 -4.344,1.898c-1.996,0 -3.306,-0.567 -4.128,-1.8c-0.43,-0.645 -0.665,-1.467 -0.665,-2.289l0,-8.532c0,-0.156 -0.019,-0.312 -0.06,-0.606l1.331,0c-0.039,0.255 -0.06,0.392 -0.06,0.606l0,8.434c0,2.231 1.469,3.581 3.934,3.581c2.603,0 4.09,-1.428 4.09,-3.914l0,-8.101c0,-0.234 -0.02,-0.371 -0.059,-0.606l0.666,0Z" style="fill:#0fdeed;fill-rule:nonzero;stroke:#3e73b9;stroke-width:0.75px;"/><path d="M111.536,26.539c0,0.215 0.02,0.351 0.058,0.606l-1.33,0c0.04,-0.294 0.058,-0.45 0.058,-0.606l0,-11.838c0,-0.156 -0.018,-0.314 -0.058,-0.606l2.837,0c2.504,0 4.168,1.35 4.168,3.403c0,2.075 -1.448,3.248 -4.168,3.425l5.107,5.772c0.176,0.195 0.273,0.274 0.567,0.45l-1.878,0c-0.098,-0.215 -0.117,-0.255 -0.372,-0.528l-4.989,-5.694l0,5.616Zm1.31,-6.105c1.86,0 3.17,-1.174 3.17,-2.856c0,-0.96 -0.43,-1.84 -1.154,-2.349c-0.568,-0.391 -1.175,-0.548 -2.21,-0.548l-1.116,0l0,5.753l1.31,0Z" style="fill:#0fdeed;fill-rule:nonzero;stroke:#3e73b9;stroke-width:0.75px;"/><path d="M131.375,14.094c-0.039,0.196 -0.058,0.313 -0.058,0.606l0,11.838c0,0.294 0.019,0.411 0.058,0.607l-1.33,0c0.039,-0.293 0.058,-0.451 0.058,-0.607l0,-11.838c0,-0.156 -0.019,-0.312 -0.058,-0.606l1.33,0Z" style="fill:#0fdeed;fill-rule:nonzero;stroke:#3e73b9;stroke-width:0.75px;"/><path d="M143.857,25.267c1.097,0.997 1.86,1.33 2.994,1.33c1.683,0 2.857,-1.095 2.857,-2.641c0,-0.861 -0.313,-1.526 -0.998,-2.075c-0.313,-0.254 -0.821,-0.547 -1.995,-1.154c-2.33,-1.193 -3.111,-2.093 -3.111,-3.541c0,-1.898 1.642,-3.267 3.931,-3.267c0.96,0 1.683,0.175 2.74,0.664l-0.332,0.9c-0.998,-0.664 -1.742,-0.919 -2.603,-0.919c-1.467,0 -2.562,0.978 -2.562,2.308c0,1.175 0.644,1.84 2.757,2.917c1.469,0.723 1.977,1.056 2.427,1.545c0.607,0.665 0.92,1.448 0.92,2.328c0,1.057 -0.508,2.113 -1.351,2.798c-0.664,0.568 -1.642,0.861 -2.758,0.861c-1.173,0 -2.073,-0.253 -3.267,-0.979l0.351,-1.075Z" style="fill:#0fdeed;fill-rule:nonzero;stroke:#3e73b9;stroke-width:0.75px;"/></svg>